# xmcd
#
# Track frame offsets:
# 150
# 21292
# 41697
# 57722
# 76647
# 100497
# 124062
# 141912
# 160712
# 179825
# 196570
# 220332
# 239467
# 270172
# 291482
# 313410
#
# Disc length: 4441 seconds
#
#
# Revision: 3
# Processed by: cddbd v1.5.2PL0 Copyright (c) Steve Scherf et al.
# Submitted via: FreeRIP 2.945 
#
DISCID=f0115710
DTITLE=Richard Marx - Greatest Hits
DYEAR=1997
DGENRE=Rock
TTITLE0=Don't Mean Nothing
TTITLE1=Endless Summer Nights
TTITLE2=Now and Forever
TTITLE3=Should've Known Better
TTITLE4=Angelia
TTITLE5=Hold On To The Nights
TTITLE6=Angel's Lullaby
TTITLE7=Take This Heart
TTITLE8=Satisfied
TTITLE9=Surrender To Me
TTITLE10=Hazard
TTITLE11=The Way She Loves Me
TTITLE12=Keep Coming Back
TTITLE13=Children Of The Night
TTITLE14=Touch of Heaven
TTITLE15=Right Here Waiting
EXTD=
EXTT0=
EXTT1=
EXTT2=
EXTT3=
EXTT4=
EXTT5=
EXTT6=
EXTT7=
EXTT8=
EXTT9=
EXTT10=
EXTT11=
EXTT12=
EXTT13=
EXTT14=
EXTT15=
PLAYORDER=
